<svg xmlns="http://www.w3.org/2000/svg" width="47.998" height="47.998" viewBox="0 0 412 412">
  <defs>
    <style>
      .cls-1 {
        fill: #0090ff;
      }

      .cls-2 {
        fill: #6f0;
      }

      .cls-2, .cls-3 {
        fill-rule: evenodd;
      }
    </style>
  </defs>
  <circle class="cls-1" cx="206" cy="206" r="202"/>
  <path class="cls-2" d="M113,129c-0.133-10.742,33.1-14.287,33-22-0.076-6.155-6.715-6.894-8-13s1.422-10.964,9-12,71.815-2.8,88-9,13.117-11.492,11-16-8.531-9.393-12-9c-5.432.615-27.115,16.315-38,19-7.862,1.939-16.1,1.173-19-5-3.416-7.265,9.378-25.641,17-31,7.748-5.448,24.308-6.82,37-3s25.733,10.175,34,10,25.788-13.939,27-14,26.935,5.356,63,45c46.1,50.673,51,106,51,106s-3.841,34.478-12,35c-11.225.719-28.723-60.451-48.058-50.885C344.482,159.837,333,169,333,169l-27,66-6,14s-10.542,33.6-15,42-35,57-35,57l-5,7s-11.437,9.418-20,7-9.275-30.4-11-40-23-19-23-19-1.142-13.051,0-22c1.041-8.163,7.712-18.4,8-26s-6.544-24.97-12-29-58.56,19.216-62,22-7,6-7,6-3.664,6.032-18,2c-12.614-3.548-11.563-30.88-12-37s39-29,39-29l13,6s-2.077-21.939,0-27,12.376-13.91,20-15c9.529-1.362,25.487,2.387,35,6s21.045,8.169,31,8c12.118-.206,39.881-5.617,45-16,3.585-7.272-1.927-17.885-8-20-6.773-2.359-11.578-1.206-14-6s13.843-12.609,18-16c5.863-4.782-1.232-21.147-16-16-10.625,3.7-13.426,9.324-15,13s-2,16.645-9,16c-5.267-.485,1.069-16.077-3-20-6.232-6.009-19.253-2.186-26,1-6.656,3.142-22.873,15.519-26,22s-9.009,18.652-19,21S113.09,136.284,113,129Z"/>
  <path class="cls-3" d="M225,266c-14.854-14.4-4.651-61.013,31-94s73.288-51.874,96-33-3.983,66.745-27,90S251.649,291.828,225,266Z"/>
  <path class="cls-3" d="M59,139c11.418-11.755,49.269-12.756,92,27,39.385,36.643,55.707,82.277,36,101-17.876,16.983-66.541-.472-98-35s-47.13-74.748-29-94"/>
  <path class="cls-3" d="M69,277l13-1,26,27s29.361-23.739,32-24,30,35,30,35,31.843-36.9,36-37,37,36,37,36,24.782-33.469,28-34,34,24,34,24,21.637-24.112,25-26,11.688-1.408,13,0-29.015,63.2-32,64-26-17-26-17-32.615,41.716-35,42-44-38-44-38-40.074,38.361-43,38-36-42-36-42-23.115,18.151-26,17S69,277,69,277Z"/>
</svg>
